<?xml version="1.0" standalone="no"?>
<!DOCTYPE svg PUBLIC "-//W3C//DTD SVG 20010904//EN"
 "http://www.w3.org/TR/2001/REC-SVG-20010904/DTD/svg10.dtd">
<svg version="1.0" xmlns="http://www.w3.org/2000/svg"
 width="503.000000pt" height="401.000000pt" viewBox="0 0 503.000000 401.000000"
 preserveAspectRatio="xMidYMid meet">

<g transform="translate(0.000000,401.000000) scale(0.100000,-0.100000)"
fill="#000000" stroke="none">
<path d="M0 2010 l0 -2000 2510 0 2510 0 0 2000 0 2000 -2510 0 -2510 0 0
-2000z m1604 1758 c8 -31 7 -51 -3 -67 -14 -23 -51 17 -51 56 0 28 4 33 24 33
16 0 26 -7 30 -22z m146 -67 c0 -23 -19 -31 -76 -31 -47 0 -52 4 -31 24 17 18
37 24 75 25 25 1 32 -3 32 -18z m710 -1 c0 -5 5 -10 11 -10 26 0 39 -30 39
-90 0 -71 8 -83 70 -101 24 -7 56 -25 70 -39 14 -14 41 -36 60 -50 54 -41 70
-57 70 -69 0 -6 7 -14 15 -17 8 -4 15 -12 15 -19 0 -7 7 -15 15 -19 8 -3 15
-12 15 -21 0 -8 5 -15 10 -15 6 0 10 -7 10 -15 0 -8 4 -15 10 -15 5 0 12 -11
16 -25 3 -14 10 -25 15 -25 5 0 9 -9 9 -19 0 -11 5 -21 11 -23 5 -2 13 -22 16
-46 3 -23 10 -42 14 -42 5 0 9 -9 9 -19 0 -11 4 -21 10 -23 5 -1 13 -31 16
-65 4 -35 11 -63 15 -63 5 0 9 -31 9 -70 0 -66 -1 -70 -22 -70 -44 0 -193 23
-198 31 -3 4 -37 11 -75 15 -39 4 -73 12 -77 18 -10 15 -447 15 -456 -1 -4 -6
-40 -15 -80 -18 -39 -4 -72 -11 -72 -14 0 -8 -141 -31 -188 -31 l-32 0 0 55
c0 30 5 55 10 55 6 0 10 18 10 40 0 22 4 40 9 40 5 0 12 25 16 55 3 30 10 55
15 55 4 0 11 18 15 40 4 22 11 40 16 40 5 0 9 9 9 20 0 11 4 20 9 20 5 0 12
14 16 30 4 17 11 30 16 30 5 0 9 7 9 15 0 8 5 15 10 15 6 0 10 6 10 14 0 8 12
28 28 45 47 53 52 60 52 71 0 5 3 10 8 10 4 0 19 10 33 23 54 45 84 67 92 67
5 0 15 7 23 15 8 8 31 17 52 21 34 7 77 34 53 34 -7 0 -11 24 -11 61 0 73 13
88 78 89 23 0 42 5 42 10 0 6 7 10 15 10 8 0 15 -4 15 -10z m-891 -29 c11 -7
9 -13 -8 -30 -37 -37 -127 -23 -103 16 13 20 87 29 111 14z m70 -30 c8 -5 15
-27 15 -53 1 -37 -2 -43 -20 -46 -23 -3 -34 19 -34 69 0 37 12 47 39 30z m404
-161 c9 -11 12 -20 7 -20 -6 0 -10 -5 -10 -12 0 -12 -21 -33 -79 -77 -17 -13
-31 -30 -31 -37 0 -7 -9 -16 -20 -19 -11 -3 -20 -12 -20 -18 0 -7 -9 -20 -20
-30 -11 -9 -20 -23 -20 -30 0 -7 -9 -19 -20 -27 -11 -8 -23 -29 -26 -47 -3
-18 -10 -33 -15 -33 -5 0 -9 -7 -9 -15 0 -8 -4 -15 -9 -15 -5 0 -12 -18 -16
-40 -4 -22 -11 -40 -16 -40 -5 0 -9 -9 -9 -20 0 -11 -4 -20 -9 -20 -5 0 -13
-29 -16 -65 -4 -36 -11 -65 -16 -65 -5 0 -9 -21 -9 -46 0 -43 -16 -74 -38 -74
-6 0 -13 -6 -15 -12 -4 -10 -8 -9 -16 2 -8 12 -41 15 -183 15 -121 0 -177 3
-185 12 -15 13 -18 53 -4 53 4 0 11 28 15 63 3 34 11 64 16 65 6 2 10 15 10
28 0 13 4 24 10 24 5 0 13 12 16 28 4 15 15 34 24 42 10 8 20 25 24 38 4 12
12 22 17 22 5 0 9 5 9 10 0 6 11 21 25 34 14 13 25 28 25 35 0 6 3 11 8 11 12
0 58 44 65 63 3 9 14 17 23 17 10 0 24 7 33 15 48 45 75 65 87 65 8 0 14 4 14
10 0 5 19 15 43 22 23 6 46 18 50 25 4 7 19 13 32 13 13 0 30 6 38 14 8 8 35
17 60 21 26 4 47 11 47 16 0 7 20 11 80 17 9 1 23 -7 33 -18z m847 0 c3 -4 25
-10 49 -13 24 -3 47 -9 50 -14 3 -5 25 -15 49 -21 23 -7 42 -16 42 -21 0 -4
18 -13 39 -20 21 -6 42 -18 45 -26 3 -8 12 -15 21 -15 8 0 24 -8 34 -17 36
-33 50 -43 60 -43 14 0 61 -45 61 -59 0 -6 3 -11 8 -11 16 0 74 -59 68 -69 -4
-6 0 -11 8 -11 9 0 16 -6 16 -14 0 -8 7 -16 15 -20 8 -3 15 -12 15 -21 0 -8 5
-15 10 -15 6 0 10 -9 10 -19 0 -10 7 -21 15 -25 8 -3 15 -15 15 -26 0 -11 5
-20 10 -20 6 0 10 -7 10 -15 0 -8 4 -15 9 -15 5 0 13 -29 16 -65 4 -36 11 -65
16 -65 11 0 12 -80 2 -81 -5 0 -101 -1 -215 -3 l-208 -2 0 38 c0 21 -4 38 -9
38 -4 0 -12 32 -15 70 -4 39 -11 70 -17 70 -5 0 -9 11 -9 25 0 14 -4 25 -9 25
-5 0 -12 19 -16 42 -4 24 -15 50 -25 58 -10 8 -21 30 -24 48 -4 17 -12 32 -17
32 -5 0 -9 6 -9 14 0 8 -7 16 -15 20 -8 3 -15 12 -15 21 0 8 -4 15 -10 15 -5
0 -10 7 -10 15 0 8 -4 15 -10 15 -5 0 -10 7 -10 15 0 9 -11 21 -25 27 -14 6
-28 22 -31 34 -4 15 -19 28 -40 36 -19 6 -34 17 -34 24 0 6 -7 14 -15 18 -21
8 -19 54 3 59 22 5 85 -4 92 -13z m867 -162 c15 -7 35 -21 44 -30 9 -10 26
-18 38 -18 11 0 21 -4 21 -10 0 -5 -11 -10 -25 -10 -16 0 -23 -4 -19 -14 3 -9
-10 -17 -43 -26 -26 -8 -53 -20 -58 -27 -12 -16 -45 -7 -45 12 0 8 10 17 22
21 12 3 28 12 35 18 27 24 39 33 53 40 8 3 3 4 -12 1 -19 -4 -34 1 -48 15 -11
11 -27 20 -35 20 -8 0 -15 5 -15 10 0 14 53 13 87 -2z m-489 -884 c4 -5 31
-15 61 -22 43 -10 62 -21 95 -57 58 -63 66 -73 66 -85 0 -5 4 -10 9 -10 5 0
12 -16 15 -35 4 -19 11 -35 16 -35 6 0 10 -9 10 -20 0 -11 4 -20 10 -20 5 0
12 -16 16 -35 3 -19 10 -35 15 -35 5 0 9 -7 9 -15 0 -8 5 -15 10 -15 6 0 10
-7 10 -15 0 -28 79 -95 121 -101 21 -4 39 -10 39 -15 0 -5 34 -9 75 -9 43 0
75 4 75 10 0 15 109 12 124 -2 7 -7 25 -22 39 -33 25 -18 27 -25 27 -92 0 -42
-4 -73 -10 -73 -5 0 -10 -7 -10 -15 0 -8 -4 -15 -8 -15 -5 0 -18 -9 -30 -21
-19 -17 -36 -20 -92 -20 -49 0 -74 -4 -85 -15 -13 -13 -15 -75 -15 -455 0
-286 -3 -439 -10 -439 -5 0 -10 -7 -10 -15 0 -8 -4 -15 -8 -15 -5 0 -19 -10
-32 -22 -24 -23 -29 -23 -288 -23 -173 0 -265 4 -270 11 -4 5 -21 16 -39 23
-38 15 -43 32 -43 139 0 48 -4 82 -10 82 -5 0 -10 7 -10 15 0 13 -86 15 -716
15 -607 0 -718 -2 -730 -14 -10 -10 -14 -39 -14 -100 0 -50 -4 -86 -10 -86 -5
0 -12 -11 -16 -25 -4 -15 -13 -25 -25 -25 -10 0 -22 -8 -28 -17 -9 -17 -33
-18 -283 -18 -270 0 -274 0 -298 23 -13 12 -27 22 -32 22 -4 0 -8 14 -8 30 0
17 -4 30 -10 30 -6 0 -10 133 -10 380 0 247 4 380 10 380 6 0 10 11 10 25 0
14 -4 25 -10 25 -5 0 -10 14 -10 30 0 24 -4 30 -22 30 -103 2 -148 9 -169 29
-13 12 -26 21 -31 21 -4 0 -8 9 -8 20 0 11 -4 20 -10 20 -6 0 -10 28 -10 65 0
37 4 65 10 65 6 0 10 5 10 11 0 16 31 38 53 39 9 0 17 5 17 10 0 6 28 10 65
10 37 0 65 -4 65 -10 0 -6 27 -10 60 -10 33 0 60 4 60 9 0 5 18 11 39 15 42 6
121 73 121 101 0 8 5 15 10 15 6 0 10 7 10 15 0 8 4 15 9 15 5 0 12 11 15 25
4 14 11 25 16 25 6 0 10 11 10 25 0 14 5 25 10 25 6 0 10 9 10 19 0 11 7 26
15 35 8 8 15 19 15 25 0 6 4 11 9 11 5 0 12 13 16 30 3 16 15 32 25 35 10 3
20 15 23 25 3 12 14 20 25 20 11 0 22 7 25 15 4 8 26 17 57 21 27 4 50 10 50
15 0 14 121 16 923 15 531 -1 780 -4 785 -12z m-2414 -166 c9 -34 8 -35 -24
-40 -24 -4 -30 -1 -30 13 0 9 -6 20 -12 22 -7 3 -1 6 15 6 15 1 27 6 27 11 0
19 18 10 24 -12z m96 -47 c0 -20 -18 -31 -51 -31 -22 0 -27 35 -6 43 30 13 57
7 57 -12z m-143 -36 c7 -19 5 -22 -30 -30 -24 -6 -27 -5 -27 19 0 21 5 26 25
26 14 0 28 -7 32 -15z m93 -35 c0 -28 -3 -30 -35 -30 -28 0 -35 4 -35 20 0 11
7 20 15 20 8 0 15 5 15 10 0 6 9 10 20 10 16 0 20 -7 20 -30z m3388 -632 c2
-4 8 -8 14 -8 13 0 38 -26 38 -39 0 -6 5 -11 10 -11 6 0 10 -9 10 -20 0 -11
-4 -20 -10 -20 -5 0 -10 -5 -10 -10 0 -10 -20 -30 -67 -70 -16 -13 -63 -13
-63 0 0 6 -9 10 -20 10 -11 0 -23 7 -26 15 -3 8 -14 17 -25 20 -15 5 -19 16
-19 54 0 41 3 49 25 59 14 6 25 16 25 21 0 20 111 19 118 -1z m-2899 -954 c26
-22 29 -85 5 -108 -26 -26 -106 -21 -138 9 -25 23 -36 65 -17 65 5 0 12 11 15
24 10 39 94 45 135 10z m2105 -150 c32 -12 16 -33 -29 -39 -52 -8 -190 -3
-201 7 -3 4 -4 14 -1 23 5 12 26 15 111 15 57 0 111 -3 120 -6z m-131 -70 c18
-4 27 -12 27 -25 0 -18 -10 -19 -230 -19 -221 0 -230 1 -230 19 0 14 8 21 28
23 49 6 376 7 405 2z"/>
<path d="M2380 3575 c0 -71 -1 -75 -25 -81 -14 -3 -25 -10 -25 -14 0 -4 -16
-11 -35 -14 -19 -4 -35 -11 -35 -15 0 -5 -10 -11 -23 -15 -13 -3 -36 -17 -51
-31 -15 -14 -31 -25 -36 -25 -5 0 -12 -11 -16 -24 -3 -13 -16 -28 -30 -35 -13
-6 -24 -17 -24 -25 0 -8 -9 -17 -19 -21 -11 -3 -22 -19 -26 -35 -4 -17 -11
-30 -16 -30 -5 0 -9 -7 -9 -15 0 -8 -4 -15 -9 -15 -5 0 -13 -15 -17 -32 -3
-18 -15 -40 -24 -48 -10 -9 -21 -37 -25 -63 -4 -26 -11 -47 -16 -47 -5 0 -9
-15 -9 -34 0 -19 -4 -36 -9 -38 -5 -1 -12 -33 -16 -70 -6 -58 -5 -68 8 -68 8
0 17 4 19 9 2 6 46 15 98 22 52 7 98 17 102 23 10 15 586 15 596 0 4 -6 51
-17 105 -24 53 -8 97 -17 97 -22 0 -4 11 -8 25 -8 18 0 25 5 25 20 0 11 -4 20
-9 20 -5 0 -12 32 -16 70 -4 39 -11 70 -16 70 -5 0 -9 14 -9 30 0 17 -4 30 -9
30 -5 0 -12 18 -16 40 -4 22 -11 40 -16 40 -5 0 -9 9 -9 20 0 11 -4 20 -9 20
-5 0 -12 12 -16 27 -3 15 -15 34 -25 43 -10 9 -22 28 -25 43 -4 14 -16 29 -26
32 -10 4 -19 12 -19 19 0 7 -13 23 -30 36 -16 13 -30 29 -30 36 0 7 -9 16 -20
19 -11 3 -20 11 -20 16 0 5 -7 9 -15 9 -8 0 -24 9 -35 20 -11 11 -38 23 -60
26 -22 4 -40 10 -40 14 0 4 -11 11 -25 14 -21 5 -25 12 -25 41 0 19 5 35 10
35 6 0 10 18 10 40 l0 40 -40 0 -40 0 0 -75z"/>
<path d="M1530 3660 c0 -5 5 -10 10 -10 6 0 10 5 10 10 0 6 -4 10 -10 10 -5 0
-10 -4 -10 -10z"/>
<path d="M1880 3412 c0 -4 -27 -14 -59 -21 -33 -7 -62 -19 -65 -27 -3 -8 -15
-14 -26 -14 -11 0 -20 -5 -20 -10 0 -6 -12 -16 -27 -23 -31 -13 -37 -17 -75
-49 -15 -13 -38 -32 -52 -43 -51 -40 -76 -64 -76 -73 0 -6 -7 -12 -15 -16 -8
-3 -15 -12 -15 -20 0 -8 -9 -17 -19 -21 -11 -3 -22 -19 -26 -35 -4 -17 -11
-30 -16 -30 -5 0 -9 -5 -9 -11 0 -6 -7 -17 -15 -25 -8 -9 -15 -26 -15 -40 0
-13 -4 -24 -10 -24 -5 0 -10 -11 -10 -25 0 -14 -4 -25 -9 -25 -12 0 -19 -78
-8 -93 7 -9 10 -9 14 1 6 15 223 18 223 2 0 -5 14 -10 30 -10 27 0 30 3 30 30
0 17 5 30 10 30 6 0 10 16 10 35 0 19 4 35 9 35 5 0 13 25 16 55 4 30 11 55
16 55 5 0 9 9 9 20 0 11 4 20 9 20 5 0 12 16 15 35 4 19 11 35 16 35 6 0 10 9
10 20 0 11 4 20 9 20 5 0 12 11 15 25 4 14 11 25 16 25 6 0 10 7 10 15 0 8 5
15 10 15 6 0 10 5 10 11 0 7 12 24 28 40 40 40 52 57 52 69 0 6 11 16 25 22
14 6 25 15 25 20 0 4 -11 8 -25 8 -14 0 -25 -4 -25 -8z"/>
<path d="M2790 3450 c0 -5 5 -10 10 -10 6 0 10 5 10 10 0 6 -4 10 -10 10 -5 0
-10 -4 -10 -10z"/>
<path d="M2890 3418 c0 -8 11 -20 25 -26 14 -6 25 -17 25 -24 0 -7 11 -21 24
-32 14 -10 22 -24 20 -31 -3 -7 5 -15 20 -19 14 -3 26 -13 26 -22 0 -8 7 -17
15 -20 8 -4 15 -15 15 -25 0 -10 4 -19 9 -19 5 0 12 -13 16 -30 4 -16 11 -30
16 -30 5 0 9 -9 9 -20 0 -11 4 -20 10 -20 5 0 12 -16 16 -35 3 -19 10 -35 14
-35 5 0 12 -25 15 -55 4 -30 11 -55 16 -55 5 0 9 -11 9 -25 0 -14 5 -25 10
-25 6 0 10 -20 10 -45 l0 -45 40 0 c22 0 40 5 40 10 0 6 37 10 90 10 53 0 90
-4 90 -10 0 -5 12 -10 26 -10 l27 0 -6 67 c-3 37 -10 69 -16 71 -6 2 -11 12
-11 23 0 10 -4 19 -9 19 -5 0 -12 12 -16 27 -3 15 -15 34 -25 43 -10 9 -22 28
-25 43 -4 14 -16 29 -26 32 -10 4 -19 12 -19 19 0 7 -11 22 -25 32 -14 10 -25
24 -25 31 0 7 -9 17 -20 23 -11 6 -33 23 -49 38 -46 44 -71 63 -97 72 -13 5
-24 14 -24 19 0 5 -16 12 -35 15 -19 4 -35 11 -35 15 0 5 -21 14 -47 21 -26 6
-50 16 -53 21 -3 5 -20 12 -38 15 -24 5 -32 3 -32 -8z"/>
<path d="M3770 3235 c0 -8 5 -15 10 -15 6 0 10 7 10 15 0 8 -4 15 -10 15 -5 0
-10 -7 -10 -15z"/>
<path d="M1650 2391 c0 -4 -31 -11 -70 -14 -38 -3 -75 -10 -82 -16 -7 -6 -26
-22 -42 -36 -16 -14 -32 -25 -37 -25 -4 0 -10 -13 -14 -30 -4 -16 -11 -30 -16
-30 -5 0 -9 -7 -9 -16 0 -8 -7 -22 -15 -30 -8 -9 -15 -26 -15 -40 0 -13 -4
-24 -10 -24 -5 0 -10 -9 -10 -20 0 -11 -4 -20 -10 -20 -5 0 -12 -11 -16 -25
-3 -14 -10 -25 -15 -25 -5 0 -9 -7 -9 -15 0 -8 -4 -15 -10 -15 -5 0 -10 -6
-10 -14 0 -7 -14 -24 -31 -37 -18 -13 -43 -34 -58 -46 -14 -13 -33 -23 -43
-23 -9 0 -18 -6 -21 -12 -3 -10 -42 -13 -155 -12 -124 2 -152 -1 -152 -12 0
-8 -4 -14 -10 -14 -5 0 -10 -23 -10 -51 0 -54 16 -78 53 -79 9 0 17 -4 17 -10
0 -5 7 -10 15 -10 8 0 15 5 15 10 0 6 11 10 25 10 14 0 25 -4 25 -10 0 -5 11
-10 24 -10 37 0 76 -41 76 -79 0 -17 5 -31 10 -31 6 0 10 -11 10 -25 0 -14 -4
-25 -10 -25 -6 0 -10 -132 -10 -375 0 -225 4 -375 9 -375 5 0 11 -10 13 -23 2
-16 11 -23 30 -25 16 -2 28 -8 28 -13 0 -5 90 -9 220 -9 122 0 220 4 220 9 0
5 11 12 24 15 30 7 36 30 36 134 0 46 4 82 10 82 5 0 19 10 30 23 l21 22 717
3 c394 2 731 0 748 -3 17 -3 42 -15 55 -26 22 -19 24 -28 24 -120 1 -107 6
-119 53 -119 12 0 22 -4 22 -10 0 -6 82 -10 225 -10 125 0 225 4 225 9 0 5 11
12 25 15 l25 6 0 440 c0 251 4 440 9 440 5 0 11 10 15 23 8 33 46 47 126 47
40 0 70 4 70 10 0 6 7 10 15 10 9 0 15 9 15 25 0 14 5 25 10 25 6 0 10 18 10
40 0 22 -4 40 -10 40 -5 0 -10 7 -10 15 0 12 -24 14 -155 12 -105 -1 -158 2
-163 9 -4 6 -24 17 -44 25 -21 7 -38 18 -38 25 0 6 -11 15 -25 18 -14 4 -25
11 -25 17 0 6 -6 17 -12 24 -30 33 -38 45 -38 55 0 5 -4 10 -10 10 -5 0 -12
16 -16 35 -3 19 -10 35 -15 35 -5 0 -9 9 -9 20 0 11 -4 20 -9 20 -5 0 -12 16
-15 35 -4 19 -11 35 -16 35 -6 0 -10 7 -10 15 0 8 -4 15 -10 15 -5 0 -10 7
-10 15 0 9 -7 18 -15 21 -8 4 -15 11 -15 16 0 15 -32 37 -52 38 -10 0 -18 4
-18 9 0 5 -25 13 -55 16 -30 4 -55 11 -55 16 0 5 -334 9 -780 9 -429 0 -780
-4 -780 -9z m1480 -70 c0 -5 18 -12 41 -16 24 -4 43 -14 47 -23 3 -10 16 -26
29 -37 13 -11 23 -25 23 -31 0 -5 9 -16 20 -24 11 -8 20 -24 20 -36 0 -13 7
-29 15 -38 8 -8 15 -19 15 -25 0 -6 4 -11 9 -11 5 0 12 -16 15 -35 4 -19 11
-35 16 -35 6 0 10 -7 10 -15 0 -8 4 -15 9 -15 5 0 12 -15 15 -33 3 -18 15 -39
26 -47 21 -15 29 -80 10 -80 -5 0 -10 -7 -10 -15 0 -8 -11 -17 -25 -21 -14 -3
-25 -10 -25 -15 0 -5 -409 -9 -970 -9 -640 0 -970 3 -970 10 0 6 -9 10 -19 10
-30 0 -51 11 -51 26 0 8 -4 14 -10 14 -5 0 -10 11 -10 25 0 14 5 25 10 25 6 0
10 9 10 20 0 11 4 20 9 20 5 0 12 14 16 30 4 17 11 30 16 30 5 0 9 7 9 15 0 8
4 15 9 15 5 0 11 14 15 31 3 18 14 39 25 48 10 9 22 31 25 49 4 17 12 32 17
32 5 0 9 7 9 15 0 8 5 15 10 15 6 0 10 7 10 15 0 8 11 25 25 39 14 14 25 29
25 34 0 9 58 32 83 32 9 0 17 5 17 10 0 7 245 10 715 10 424 0 715 -4 715 -9z
m-1272 -857 c15 -4 25 -17 29 -35 3 -16 9 -29 14 -29 5 0 9 -25 9 -55 0 -30
-4 -55 -10 -55 -5 0 -10 -8 -10 -18 0 -10 -9 -25 -20 -35 -18 -15 -51 -17
-315 -17 -166 0 -295 4 -295 9 0 5 -11 12 -25 15 -24 6 -25 9 -25 96 0 53 4
90 10 90 6 0 10 6 10 14 0 8 8 17 18 19 26 7 584 8 610 1z m1708 -9 c4 -8 15
-15 25 -15 17 0 19 -8 19 -94 0 -86 -2 -95 -20 -101 -11 -3 -20 -11 -20 -16 0
-5 -119 -9 -295 -9 -190 0 -295 4 -295 10 0 6 -8 10 -19 10 -24 0 -31 26 -31
115 0 71 9 91 51 108 8 3 141 6 297 6 242 1 283 -1 288 -14z"/>
<path d="M2980 2283 c0 -10 -147 -13 -653 -15 l-652 -3 -23 -22 c-12 -13 -22
-26 -22 -29 0 -3 -6 -12 -12 -19 -32 -35 -38 -45 -38 -60 0 -8 -4 -15 -9 -15
-5 0 -12 -11 -15 -25 -4 -14 -11 -25 -16 -25 -6 0 -10 -9 -10 -21 0 -11 -7
-27 -15 -35 -8 -9 -15 -25 -15 -38 0 -12 -9 -28 -20 -36 -10 -8 -22 -27 -25
-42 -4 -15 -11 -28 -16 -28 -16 0 -10 -38 7 -44 9 -3 450 -6 980 -6 l964 0 0
35 c0 19 -4 35 -10 35 -5 0 -12 11 -16 25 -3 14 -10 25 -15 25 -5 0 -9 9 -9
20 0 11 -4 20 -9 20 -5 0 -13 15 -17 32 -3 18 -15 40 -25 48 -9 9 -20 33 -24
53 -4 20 -11 37 -16 37 -5 0 -9 5 -9 10 0 11 -5 19 -54 73 -27 30 -33 32 -110
36 -46 2 -84 8 -88 15 -6 8 -8 8 -8 -1z"/>
<path d="M1280 1350 l0 -70 269 0 c148 0 276 3 285 6 21 8 22 99 2 120 -12 11
-64 14 -285 14 l-271 0 0 -70z"/>
<path d="M2990 1350 l0 -70 285 0 285 0 0 70 0 70 -285 0 -285 0 0 -70z"/>
<path d="M4210 1481 c0 -5 -9 -13 -20 -16 -20 -6 -28 -35 -10 -35 6 0 10 -6
10 -14 0 -30 58 -35 83 -6 22 26 21 36 -3 60 -20 20 -60 27 -60 11z"/>
<path d="M1300 505 c0 -9 9 -15 25 -15 16 0 25 6 25 15 0 9 -9 15 -25 15 -16
0 -25 -6 -25 -15z"/>
</g>
</svg>
